<?xml version="1.0" encoding="UTF-8" standalone="no"?>
<svg
   height="512px"
   id="Layer_1"
   style="enable-background:new 0 0 512 512;"
   version="1.1"
   viewBox="0 0 512 512"
   width="512px"
   xml:space="preserve"
   sodipodi:docname="211605_contact_icon_ios7_contact.svg"
   inkscape:version="1.1.1 (3bf5ae0d25, 2021-09-20)"
   xmlns:inkscape="http://www.inkscape.org/namespaces/inkscape"
   xmlns:sodipodi="http://sodipodi.sourceforge.net/DTD/sodipodi-0.dtd"
   xmlns="http://www.w3.org/2000/svg"
   xmlns:svg="http://www.w3.org/2000/svg"><defs
     id="defs7" /><sodipodi:namedview
     id="namedview5"
     pagecolor="#ffffff"
     bordercolor="#666666"
     borderopacity="1.0"
     inkscape:pageshadow="2"
     inkscape:pageopacity="0.0"
     inkscape:pagecheckerboard="0"
     showgrid="false"
     inkscape:zoom="1.609375"
     inkscape:cx="255.68932"
     inkscape:cy="255.68932"
     inkscape:window-width="1920"
     inkscape:window-height="1009"
     inkscape:window-x="1912"
     inkscape:window-y="-8"
     inkscape:window-maximized="1"
     inkscape:current-layer="Layer_1" /><path
     d="M256,48C141.1,48,48,141.1,48,256c0,114.9,93.1,208,208,208c114.9,0,208-93.1,208-208C464,141.1,370.9,48,256,48z   M256,446.7c-58.6,0-111.1-26.6-146.1-68.3c17.8-7.7,62.2-23.7,90.3-31.9c2.2-0.7,2.6-0.8,2.6-10.7c0-10.6-1.2-18.1-3.8-23.6  c-3.5-7.5-7.7-20.2-9.2-31.6c-4.2-4.9-9.9-14.5-13.6-32.9c-3.2-16.2-1.7-22.1,0.4-27.6c0.2-0.6,0.5-1.2,0.6-1.8  c0.8-3.7-0.3-23.5-3.1-38.8c-1.9-10.5,0.5-32.8,15-51.3c9.1-11.7,26.6-26,58-28l17.5,0c31.9,2,49.4,16.3,58.5,28  c14.5,18.5,16.9,40.8,14.9,51.3c-2.8,15.3-3.9,35-3.1,38.8c0.1,0.6,0.4,1.2,0.6,1.7c2.1,5.5,3.7,11.4,0.4,27.6  c-3.7,18.4-9.4,28-13.6,32.9c-1.5,11.4-5.7,24-9.2,31.6c-3.3,6.9-6.6,15.1-6.6,23.3c0,9.9,0.4,10,2.7,10.7  c26.7,7.9,72.7,23.8,93,32.1C367.2,420,314.7,446.7,256,446.7z"
     id="path2" /><path
     style="fill:#a0a0a0;stroke:none;stroke-width:0.621359"
     d="m 245.43689,463.429 c -45.19217,-2.78801 -84.82688,-17.97749 -119.92233,-45.95866 -8.74317,-6.97083 -23.97197,-22.19344 -30.997489,-30.9849 -25.030383,-31.32207 -40.185717,-67.5043 -44.89543,-107.18447 -1.44763,-12.19654 -1.44763,-34.4054 0,-46.60194 4.714202,-39.718 19.841186,-75.83254 44.89543,-107.18447 7.006109,-8.76717 22.230319,-23.99138 30.997489,-30.997489 31.32207,-25.030383 67.5043,-40.185717 107.18447,-44.89543 12.19654,-1.44763 34.4054,-1.44763 46.60194,0 39.68017,4.709713 75.8624,19.865047 107.18447,44.89543 8.79146,7.025519 24.01407,22.254319 30.9849,30.997489 25.23664,31.65313 40.15075,67.25203 44.90477,107.18447 1.45315,12.20602 1.45315,34.39592 0,46.60194 -4.72178,39.66171 -19.94821,76.0223 -44.88474,107.18447 -7.01558,8.76708 -22.23785,23.98935 -31.00493,31.00493 -33.99495,27.20337 -73.61218,42.62978 -117.4369,45.72833 -8.17104,0.57772 -16.45934,0.65154 -23.61165,0.2103 z m 34.17476,-17.89303 c 44.11066,-5.68121 84.28552,-25.99079 114.66109,-57.96458 6.20027,-6.5265 8.469,-9.29108 7.98619,-9.73163 -1.77407,-1.61879 -67.9815,-24.61844 -87.85116,-30.51841 -3.07573,-0.91329 -6.01165,-2.06189 -6.52427,-2.55245 -0.72591,-0.69467 -0.9221,-2.4329 -0.88707,-7.85954 0.0545,-8.44226 0.85938,-11.64994 5.912,-23.56109 4.17436,-9.84068 7.60714,-20.55364 8.89176,-27.74926 0.67809,-3.79817 1.41672,-5.60196 3.70274,-9.04238 5.96352,-8.97497 10.6262,-23.96413 12.21215,-39.25855 0.66489,-6.41202 0.20622,-11.08805 -1.62983,-16.61589 -1.44611,-4.35385 -0.85067,-20.60203 1.27883,-34.89578 1.82626,-12.25835 1.92588,-15.90145 0.64996,-23.76853 -4.8899,-30.15038 -25.71215,-52.3438 -55.81314,-59.4885 -16.28562,-3.865523 -37.98836,-3.741598 -53.86508,0.30757 -30.661,7.81972 -51.51422,32.19173 -54.7581,63.998 -0.60043,5.88723 -0.50829,7.62026 0.94364,17.74882 1.91085,13.33005 3.01666,29.38593 2.26535,32.89196 -0.29293,1.36699 -0.97093,4.0233 -1.50665,5.90291 -2.0474,7.18339 -0.67386,21.8173 3.29725,35.12927 2.33889,7.84042 4.9193,13.61532 8.47094,18.95775 1.52735,2.29745 2.77699,4.74322 2.77699,5.43502 0,2.86533 4.42784,18.53252 7.17394,25.38382 1.62381,4.05129 3.35747,8.76404 3.85256,10.47278 1.03029,3.55585 1.79061,25.00414 0.93063,26.2522 -0.29427,0.42705 -4.99239,2.1602 -10.44026,3.85143 -31.35016,9.73231 -81.36153,28.02144 -81.36153,29.75386 0,0.39976 2.91827,3.83667 6.48505,7.63758 33.58891,35.79382 78.2132,56.96016 127.41787,60.43727 6.82201,0.48208 28.45013,-0.21628 35.72815,-1.15365 z"
     id="path46" /></svg>
