<?xml version="1.0" encoding="UTF-8" standalone="no"?>
<svg
   height="512px"
   id="Layer_1"
   style="enable-background:new 0 0 512 512;"
   version="1.1"
   viewBox="0 0 512 512"
   width="512px"
   xml:space="preserve"
   sodipodi:docname="211694_ios7_bell_icon_bell.svg"
   inkscape:version="1.1.1 (3bf5ae0d25, 2021-09-20)"
   xmlns:inkscape="http://www.inkscape.org/namespaces/inkscape"
   xmlns:sodipodi="http://sodipodi.sourceforge.net/DTD/sodipodi-0.dtd"
   xmlns="http://www.w3.org/2000/svg"
   xmlns:svg="http://www.w3.org/2000/svg"><defs
     id="defs11" /><sodipodi:namedview
     id="namedview9"
     pagecolor="#ffffff"
     bordercolor="#666666"
     borderopacity="1.0"
     inkscape:pageshadow="2"
     inkscape:pageopacity="0.0"
     inkscape:pagecheckerboard="0"
     showgrid="false"
     inkscape:zoom="1.609375"
     inkscape:cx="255.68932"
     inkscape:cy="255.68932"
     inkscape:window-width="1920"
     inkscape:window-height="1009"
     inkscape:window-x="1912"
     inkscape:window-y="-8"
     inkscape:window-maximized="1"
     inkscape:current-layer="Layer_1" /><g
     id="g6"><path
       d="M381.7,225.9c0-97.6-52.5-130.8-101.6-138.2c0-0.5,0.1-1,0.1-1.6c0-12.3-10.9-22.1-24.2-22.1c-13.3,0-23.8,9.8-23.8,22.1   c0,0.6,0,1.1,0.1,1.6c-49.2,7.5-102,40.8-102,138.4c0,113.8-28.3,126-66.3,158h384C410.2,352,381.7,339.7,381.7,225.9z"
       id="path2" /><path
       d="M256.2,448c26.8,0,48.8-19.9,51.7-43H204.5C207.3,428.1,229.4,448,256.2,448z"
       id="path4" /></g><path
     style="fill:#a0a0a0;stroke:none;stroke-width:0.621359"
     d="m 66.196949,382.84498 c 0.500416,-0.46439 5.094342,-4.29548 10.208726,-8.51353 11.964188,-9.86739 16.97453,-14.45744 22.590454,-20.69544 15.754371,-17.49951 24.396251,-39.5582 28.635191,-73.09232 1.6705,-13.2153 2.47568,-26.78866 3.16992,-53.43689 0.32496,-12.47379 0.99418,-25.75534 1.48716,-29.51457 5.43675,-41.45828 22.17551,-71.91085 49.74623,-90.50258 13.19682,-8.898995 28.4225,-14.903431 47.00867,-18.538456 l 3.48989,-0.682543 0.31055,-3.868763 c 0.41127,-5.123487 2.63099,-9.373629 6.96364,-13.333434 14.11184,-12.897421 38.0357,-4.574619 39.94197,13.89529 0.28784,2.788973 0.57838,3.429727 1.65902,3.658885 0.72054,0.152795 3.68678,0.734764 6.59163,1.293264 7.77155,1.494193 22.4008,6.482925 29.57073,10.083942 15.15194,7.609885 29.59024,19.876335 38.91626,33.062355 15.89868,22.47908 24.69861,54.54931 24.72226,90.09709 0.004,5.29709 0.28923,16.47537 0.63489,24.84064 1.92547,46.5968 8.78261,74.52666 23.67857,96.44521 5.11213,7.5222 17.77419,20.22386 30.8268,30.92318 5.5534,4.55217 10.09709,8.37709 10.09709,8.49984 0,0.12274 -85.76089,0.22317 -190.57975,0.22317 -160.638915,0 -190.436808,-0.13265 -189.669901,-0.84434 z"
     id="path50" /><path
     style="fill:#a0a0a0;stroke:none;stroke-width:0.621359"
     d="m 248.02159,447.0808 c -19.18406,-3.49057 -34.69992,-15.97222 -40.75235,-32.783 -0.95486,-2.65214 -1.90805,-5.73081 -2.11821,-6.84149 l -0.3821,-2.01942 h 51.2466 c 50.37978,0 51.24661,0.0205 51.24661,1.21065 0,0.66585 -0.69098,3.39796 -1.5355,6.07135 -4.84703,15.34355 -18.87553,28.33491 -35.74606,33.10331 -5.254,1.48502 -17.01104,2.15889 -21.95899,1.2586 z"
     id="path89" /></svg>
