<?xml version="1.0" encoding="UTF-8" standalone="no"?>
<svg
   height="512px"
   id="Layer_1"
   style="enable-background:new 0 0 512 512;"
   version="1.1"
   viewBox="0 0 512 512"
   width="512px"
   xml:space="preserve"
   sodipodi:docname="icon_ios7_search_strong_strong_search.svg"
   inkscape:version="1.1.1 (3bf5ae0d25, 2021-09-20)"
   xmlns:inkscape="http://www.inkscape.org/namespaces/inkscape"
   xmlns:sodipodi="http://sodipodi.sourceforge.net/DTD/sodipodi-0.dtd"
   xmlns="http://www.w3.org/2000/svg"
   xmlns:svg="http://www.w3.org/2000/svg"><defs
   id="defs7" /><sodipodi:namedview
   id="namedview5"
   pagecolor="#ffffff"
   bordercolor="#666666"
   borderopacity="1.0"
   inkscape:pageshadow="2"
   inkscape:pageopacity="0.0"
   inkscape:pagecheckerboard="0"
   showgrid="false"
   inkscape:zoom="1.609375"
   inkscape:cx="255.68932"
   inkscape:cy="255.68932"
   inkscape:window-width="1920"
   inkscape:window-height="1009"
   inkscape:window-x="1912"
   inkscape:window-y="-8"
   inkscape:window-maximized="1"
   inkscape:current-layer="Layer_1" />
  <path
   d="M344.5,298c15-23.6,23.8-51.6,23.8-81.7c0-84.1-68.1-152.3-152.1-152.3C132.1,64,64,132.2,64,216.3  c0,84.1,68.1,152.3,152.1,152.3c30.5,0,58.9-9,82.7-24.4l6.9-4.8L414.3,448l33.7-34.3L339.5,305.1L344.5,298z M301.4,131.2  c22.7,22.7,35.2,52.9,35.2,85c0,32.1-12.5,62.3-35.2,85c-22.7,22.7-52.9,35.2-85,35.2c-32.1,0-62.3-12.5-85-35.2  c-22.7-22.7-35.2-52.9-35.2-85c0-32.1,12.5-62.3,35.2-85c22.7-22.7,52.9-35.2,85-35.2C248.5,96,278.7,108.5,301.4,131.2z"
   id="path2" />
<path
   style="fill:#666666;stroke-width:0.621359"
   d="m 359.76654,393.03302 -54.0578,-54.03494 -6.52427,4.38781 c -7.39072,4.97051 -22.17498,12.41645 -31.28961,15.75868 -7.74915,2.84153 -20.54292,6.12969 -28.98224,7.44879 -9.23104,1.44286 -27.35454,1.90999 -37.08849,0.95596 C 145.27991,362.00736 96.821375,325.71484 75.281723,272.7767 64.930185,247.33566 61.818028,217.97539 66.554821,190.4466 74.499383,144.27526 104.19718,103.57469 145.9094,81.691847 c 15.7824,-8.279678 31.65647,-13.321985 51.06147,-16.219378 8.2521,-1.232134 31.074,-1.081746 40.11395,0.264337 33.52547,4.992073 63.13574,19.895693 86.64334,43.609854 22.99693,23.19901 37.64507,52.43388 42.65879,85.13878 1.8809,12.26929 1.8809,31.22585 0,43.49514 -3.36082,21.92292 -11.86024,44.26454 -23.30657,61.2638 l -4.01372,5.96088 54.00065,53.99797 c 29.70036,29.69888 54.00065,54.24647 54.00065,54.55018 0,0.59076 -32.31315,33.31455 -32.8965,33.31455 -0.19091,0 -24.67312,-24.31572 -54.40492,-54.03494 z M 230.85125,335.81421 c 26.38835,-3.2667 49.74144,-14.31534 68.84628,-32.57201 33.53887,-32.04989 45.61924,-80.52308 31.12181,-124.8781 -11.64923,-35.64093 -40.31772,-64.48782 -75.9303,-76.40281 -12.23075,-4.092067 -20.24947,-5.41975 -34.92787,-5.783099 -18.19414,-0.450378 -30.62561,1.473225 -45.54635,7.047679 C 127.02184,120.93211 96,165.63908 96,216.23301 c 0,59.87576 43.87512,110.66931 102.98201,119.2207 7.33609,1.06135 24.62771,1.25696 31.86924,0.3605 z"
   id="path83" /></svg>
